<?xml version="1.0" encoding="UTF-8" standalone="no"?>
<!-- Created with Inkscape (http://www.inkscape.org/) -->

<svg
   xmlns:dc="http://purl.org/dc/elements/1.1/"
   xmlns:cc="http://creativecommons.org/ns#"
   xmlns:rdf="http://www.w3.org/1999/02/22-rdf-syntax-ns#"
   xmlns:svg="http://www.w3.org/2000/svg"
   xmlns="http://www.w3.org/2000/svg"
   xmlns:xlink="http://www.w3.org/1999/xlink"
   xmlns:sodipodi="http://sodipodi.sourceforge.net/DTD/sodipodi-0.dtd"
   xmlns:inkscape="http://www.inkscape.org/namespaces/inkscape"
   inkscape:version="0.48.1 r9760"
   version="1.1"
   id="svg2"
   height="369.55817"
   width="377.02682"
   sodipodi:docname="New document 1">
  <defs
     id="defs4">
    <linearGradient
       inkscape:collect="always"
       id="linearGradient4873">
      <stop
         style="stop-color:#003380;stop-opacity:1;"
         offset="0"
         id="stop4875" />
      <stop
         style="stop-color:#003380;stop-opacity:0;"
         offset="1"
         id="stop4877" />
    </linearGradient>
    <linearGradient
       inkscape:collect="always"
       id="linearGradient4865">
      <stop
         style="stop-color:#0066ff;stop-opacity:1;"
         offset="0"
         id="stop4867" />
      <stop
         style="stop-color:#0066ff;stop-opacity:0;"
         offset="1"
         id="stop4869" />
    </linearGradient>
    <linearGradient
       inkscape:collect="always"
       id="linearGradient4857">
      <stop
         style="stop-color:#d5e5ff;stop-opacity:1;"
         offset="0"
         id="stop4859" />
      <stop
         style="stop-color:#d5e5ff;stop-opacity:0;"
         offset="1"
         id="stop4861" />
    </linearGradient>
    <linearGradient
       inkscape:collect="always"
       id="linearGradient4789">
      <stop
         style="stop-color:#ffffff;stop-opacity:1"
         offset="0"
         id="stop4791" />
      <stop
         style="stop-color:#9dc4ff;stop-opacity:1"
         offset="1"
         id="stop4793" />
    </linearGradient>
    <radialGradient
       inkscape:collect="always"
       xlink:href="#linearGradient4789"
       id="radialGradient4795"
       cx="200"
       cy="613.11218"
       fx="200"
       fy="613.11218"
       r="35.25"
       gradientUnits="userSpaceOnUse" />
    <filter
       inkscape:collect="always"
       id="filter4849"
       color-interpolation-filters="sRGB">
      <feGaussianBlur
         inkscape:collect="always"
         stdDeviation="5.7209681"
         id="feGaussianBlur4851" />
    </filter>
    <filter
       inkscape:collect="always"
       id="filter4853"
       color-interpolation-filters="sRGB">
      <feGaussianBlur
         inkscape:collect="always"
         stdDeviation="5.7209681"
         id="feGaussianBlur4855" />
    </filter>
    <linearGradient
       inkscape:collect="always"
       xlink:href="#linearGradient4857"
       id="linearGradient4863"
       x1="188.09039"
       y1="633.755"
       x2="350.72498"
       y2="435.05795"
       gradientUnits="userSpaceOnUse" />
    <linearGradient
       inkscape:collect="always"
       xlink:href="#linearGradient4865"
       id="linearGradient4871"
       x1="238.29498"
       y1="648.60419"
       x2="450.42703"
       y2="441.42194"
       gradientUnits="userSpaceOnUse" />
    <linearGradient
       inkscape:collect="always"
       xlink:href="#linearGradient4873"
       id="linearGradient4879"
       x1="243.24474"
       y1="651.43262"
       x2="441.94174"
       y2="372.12546"
       gradientUnits="userSpaceOnUse" />
    <filter
       inkscape:collect="always"
       id="filter4965"
       color-interpolation-filters="sRGB">
      <feGaussianBlur
         inkscape:collect="always"
         stdDeviation="8.3324219"
         id="feGaussianBlur4967" />
    </filter>
    <filter
       inkscape:collect="always"
       id="filter5037"
       x="-0.16229507"
       width="1.3245902"
       y="-0.16229507"
       height="1.3245902"
       color-interpolation-filters="sRGB">
      <feGaussianBlur
         inkscape:collect="always"
         stdDeviation="4.767418"
         id="feGaussianBlur5039" />
    </filter>
    <linearGradient
       inkscape:collect="always"
       xlink:href="#linearGradient4865"
       id="linearGradient5046"
       gradientUnits="userSpaceOnUse"
       x1="238.29498"
       y1="648.60419"
       x2="450.42703"
       y2="441.42194" />
    <linearGradient
       inkscape:collect="always"
       xlink:href="#linearGradient4857"
       id="linearGradient5048"
       gradientUnits="userSpaceOnUse"
       x1="188.09039"
       y1="633.755"
       x2="350.72498"
       y2="435.05795" />
    <radialGradient
       inkscape:collect="always"
       xlink:href="#linearGradient4789"
       id="radialGradient5050"
       gradientUnits="userSpaceOnUse"
       cx="200"
       cy="613.11218"
       fx="200"
       fy="613.11218"
       r="35.25" />
    <linearGradient
       inkscape:collect="always"
       xlink:href="#linearGradient4873"
       id="linearGradient5061"
       gradientUnits="userSpaceOnUse"
       x1="243.24474"
       y1="651.43262"
       x2="441.94174"
       y2="372.12546" />
    <linearGradient
       inkscape:collect="always"
       xlink:href="#linearGradient4865"
       id="linearGradient5063"
       gradientUnits="userSpaceOnUse"
       x1="238.29498"
       y1="648.60419"
       x2="450.42703"
       y2="441.42194" />
    <linearGradient
       inkscape:collect="always"
       xlink:href="#linearGradient4857"
       id="linearGradient5065"
       gradientUnits="userSpaceOnUse"
       x1="188.09039"
       y1="633.755"
       x2="350.72498"
       y2="435.05795" />
    <radialGradient
       inkscape:collect="always"
       xlink:href="#linearGradient4789"
       id="radialGradient5067"
       gradientUnits="userSpaceOnUse"
       cx="200"
       cy="613.11218"
       fx="200"
       fy="613.11218"
       r="35.25" />
  </defs>
  <sodipodi:namedview
     id="base"
     pagecolor="#ffffff"
     bordercolor="#666666"
     borderopacity="1.0"
     inkscape:pageopacity="0.0"
     inkscape:pageshadow="2"
     inkscape:zoom="1"
     inkscape:cx="220.36336"
     inkscape:cy="52.981262"
     inkscape:document-units="px"
     inkscape:current-layer="layer1"
     showgrid="false"
     inkscape:window-width="1280"
     inkscape:window-height="975"
     inkscape:window-x="-4"
     inkscape:window-y="-4"
     inkscape:window-maximized="1"
     fit-margin-top="0"
     fit-margin-left="0"
     fit-margin-right="0"
     fit-margin-bottom="0" />
  <metadata
     id="metadata7">
    <rdf:RDF>
      <cc:Work
         rdf:about="">
        <dc:format>image/svg+xml</dc:format>
        <dc:type
           rdf:resource="http://purl.org/dc/dcmitype/StillImage" />
        <dc:title></dc:title>
      </cc:Work>
    </rdf:RDF>
  </metadata>
  <g
     inkscape:label="Layer 1"
     inkscape:groupmode="layer"
     id="layer1"
     transform="translate(-140.99835,-303.31189)">
    <g
       id="g5055">
      <path
         id="path4754"
         d="m 335.05871,323.30975 -161.5625,256.625 0.0312,0 c -7.74763,7.73175 -12.53125,18.40838 -12.53125,30.21875 0,23.58905 19.09845,42.71875 42.6875,42.71875 12.82845,0 24.32697,-5.67116 32.15625,-14.625 l 0.0937,0.0937 262.09375,-224.0625 -61.125,10.875 28.53125,-32.59375 -96.40625,47.53125 73.3125,-67.90625 -116.78125,71.96875 65.1875,-93.6875 -84.1875,62.46875 74.6875,-89.625 -71.96875,58.375 25.78125,-58.375 z"
         style="fill:url(#linearGradient5061);fill-opacity:1;stroke:none;filter:url(#filter4965)"
         inkscape:connector-curvature="0" />
      <path
         inkscape:connector-curvature="0"
         id="path4777"
         d="m 313.09375,388.96875 c -3.76118,3.26081 -8.23759,2.26265 -12.59375,2.96875 -4.60662,2.11803 -4.94259,8.26966 -8.42787,11.67383 -38.81587,61.21792 -76.52716,123.24785 -116.47838,183.66992 -17.52433,18.49307 -7.35899,54.41766 17.78125,59.71875 15.83989,4.55844 32.85714,-3.46362 42.82352,-15.80498 C 316.55653,562.77298 396.61985,494.00594 476.90625,425.5 c -18.69039,3.30663 -37.37482,6.64684 -56.0625,9.96875 5.46304,-5.75764 10.14569,-12.09882 14.3125,-18.875 -24.47557,8.72165 -46.28145,24.83937 -71.1875,31.34375 -4.81467,-2.59324 -2.42906,-9.32946 0.6875,-12.34375 2.43084,-3.60276 -2.58618,-5.87359 -5.21875,-3.59375 -13.31376,6.51458 -25.0414,16.97176 -39.40625,21 -4.70213,-2.8901 -2.28284,-9.75823 1.33805,-12.48689 10.10111,-15.70676 22.49083,-30.08998 31.0682,-46.60686 0.20289,-4.72893 -5.59093,-2.71391 -7.59375,-0.6875 -13.89381,9.37346 -26.43697,22.24853 -42.375,28.125 -4.81222,-2.23417 -4.02382,-9.35493 0.21049,-11.74818 5.95863,-7.38416 11.84237,-14.82477 16.16451,-23.31432 -1.91667,0.89583 -3.83333,1.79167 -5.75,2.6875 z"
         style="fill:url(#linearGradient5063);fill-opacity:1;stroke:none;filter:url(#filter4853)" />
      <path
         inkscape:connector-curvature="0"
         id="path4809"
         d="m 303.90625,397.59375 c -3.79338,0.65787 -3.855,6.44686 -5.78125,7.8125 2.50518,-2.26312 4.30567,-5.36979 6.46875,-7.96875 l -0.6875,0.15625 z m 33,9.03125 c -10.70579,8.21747 -21.83768,17.42521 -35,20.96875 -6.65464,-1.38967 -10.04096,-9.2626 -8.1875,-15.4375 -39.16118,61.72195 -77.01413,124.71595 -117.875,185.0625 -9.4552,18.14352 3.6863,45.06842 25.0625,45.03125 15.19293,1.05039 26.95861,-10.12506 36.71971,-20.22843 C 310.55091,559.8598 383.29533,497.48674 456.15625,435.25 c -17.32167,3.10073 -34.64652,6.18365 -51.96875,9.28125 4.1169,-4.47932 8.37357,-8.79363 12.4375,-13.3125 -17.50847,8.44812 -34.69954,19.21817 -53.84375,22.875 -5.7627,-1.3494 -7.80877,-8.75807 -7.65625,-12.875 -11.63264,6.65893 -23.04502,15.92747 -36.4375,17.96875 -9.1363,-3.42944 -9.1462,-17.29747 -1.875,-22.71875 6.88343,-10.73553 14.95174,-20.73052 22,-31.375 -0.63542,0.51042 -1.27083,1.02083 -1.90625,1.53125 z"
         style="fill:url(#linearGradient5065);fill-opacity:1;stroke:none;filter:url(#filter4849)" />
      <path
         transform="matrix(0.99123517,0,0,0.99123517,7.8314009,2.0454211)"
         d="m 235.25,613.11218 c 0,19.46804 -15.78196,35.25 -35.25,35.25 -19.46804,0 -35.25,-15.78196 -35.25,-35.25 0,-19.46803 15.78196,-35.25 35.25,-35.25 19.46804,0 35.25,15.78197 35.25,35.25 z"
         sodipodi:ry="35.25"
         sodipodi:rx="35.25"
         sodipodi:cy="613.11218"
         sodipodi:cx="200"
         id="path4787"
         style="fill:url(#radialGradient5067);fill-opacity:1;fill-rule:evenodd;stroke:none;filter:url(#filter5037)"
         sodipodi:type="arc" />
    </g>
  </g>
</svg>
